<svg width="344" height="344" fill="none" xmlns="http://www.w3.org/2000/svg"><path d="M43.68 83.49c18.202 5.019 30.486 15.057 37.767 30.113l4.095 8.214c1.366 3.191 2.73 5.473 4.55 7.755l3.186 3.65c8.645 9.126 20.021 15.057 33.217 16.88-12.74-4.561-22.752-11.862-30.485-22.356-2.731-3.649-5.007-8.211-6.826-13.687l-4.097-15.512c-3.64-9.126-9.555-17.792-18.202-24.183-7.735-6.388-17.29-10.036-27.756-11.86 3.184 0 6.826.91 11.83 2.282l5.46 2.28c17.29 7.298 28.667 19.16 33.673 35.129l2.73 8.67c1.364 2.738 2.275 5.932 3.64 8.214l2.73 3.649c7.735 10.494 17.746 17.337 30.943 21.443-12.287-6.386-21.386-15.056-27.302-26.464-2.275-3.648-3.642-8.669-5.005-14.597l-2.276-15.512c-1.819-10.038-6.824-19.162-14.561-26.465-7.281-7.3-15.926-12.315-25.936-15.512 2.729.915 6.37 2.282 11.376 4.107l5.003 2.738c15.926 9.582 25.938 23.269 28.669 39.237l1.819 9.125c.911 2.738 1.364 5.474 2.276 8.211l2.274 4.564c6.371 10.948 15.471 19.162 27.302 24.637-10.921-7.757-18.657-16.881-22.752-29.201-1.819-4.105-2.73-9.123-3.185-15.053l-.454-15.969c-.456-10.04-4.097-19.62-10.922-28.288-6.37-7.755-14.105-14.143-23.661-18.704 2.73 1.367 5.914 3.192 10.92 5.474l4.55 3.65c14.562 11.86 22.297 26.005 23.208 42.886l.909 8.669c0 3.192.455 6.387.91 9.125l1.819 4.562c4.551 11.407 12.288 20.532 23.208 27.831-9.556-9.125-15.926-19.618-18.656-31.482-.909-4.561-1.364-9.58-.909-15.512l1.82-15.968c.455-10.036-1.82-20.074-7.281-29.199-5.005-9.125-12.287-15.968-20.931-21.9 2.274 1.37 5.461 3.65 10.012 6.843l4.094 4.564c12.741 13.23 18.657 28.286 17.746 45.167l-.908 9.125v8.67l1.364 5.017c2.73 11.407 9.1 21.443 18.656 29.657-8.192-10.04-12.743-20.533-13.651-32.851-.456-4.562-.456-9.582.908-15.512l3.642-15.512c2.275-10.038.909-20.074-3.185-30.112-3.184-7.754-7.735-14.145-13.652-20.074l4.55 4.105 3.641 4.561c10.921 15.058 15.016 31.024 11.376 47.45l-1.821 8.669-.909 8.671.455 5.016c1.365 11.863 5.915 22.357 14.105 31.482-6.37-10.494-9.554-21.901-9.101-33.764.455-4.561 1.366-9.578 3.186-15.054l5.915-14.601c3.186-10.036 3.186-20.074.455-30.566-2.274-8.212-5.915-15.512-10.921-21.9l4.095 5.016 2.73 5.02c9.101 16.425 10.921 32.393 5.462 48.362l-2.731 8.213c-1.366 3.194-1.82 5.932-2.275 8.667l-.456 5.02c0 8.669 1.821 16.881 5.462 24.637-2.275-8.669-2.731-17.337-1.367-26.004.455-4.564 2.275-9.126 5.005-14.602l7.282-14.145c4.551-9.123 6.37-19.16 4.55-29.653-1.366-10.038-5.006-19.619-10.92-28.288 1.364 2.282 3.639 5.476 6.369 10.495l2.275 5.475c6.826 17.337 6.826 33.305-.91 48.363l-4.095 7.754c-1.365 3.195-2.275 5.933-3.186 8.67l-.908 4.56c-1.821 11.408 0 22.813 5.005 33.309-3.186-11.407-3.186-22.814.453-34.219 1.366-4.563 3.641-9.125 6.826-13.687l9.101-12.778c5.917-8.667 8.648-18.246 8.648-29.198 0-10.493-2.73-20.074-7.282-29.199 1.365 2.282 3.184 5.933 5.006 10.95l1.819 5.476c4.095 18.25 1.82 34.218-7.737 47.905l-5.005 7.756c-1.82 2.28-3.184 5.018-4.095 7.757l-1.82 4.563c-3.185 11.405-2.729 22.812 1.365 34.675-1.82-12.776-.453-24.183 4.55-35.131 1.821-3.651 4.55-8.213 8.648-12.774l10.921-11.408c6.37-7.758 10.465-16.88 11.831-27.831 1.364-10.037.453-20.075-3.186-30.112.911 2.738 2.275 6.844 3.639 11.862l.911 5.932c1.82 18.25-2.73 33.763-13.651 46.537l-5.914 6.386c-2.275 2.738-4.097 5.02-5.461 7.757l-2.275 4.107c-4.55 10.949-5.914 22.356-3.187 34.675-.453-12.776 2.731-24.183 9.102-34.219 2.275-4.105 5.916-7.757 10.012-11.407l12.287-10.038c7.735-6.844 13.196-15.512 15.927-26.005 1.819-8.214 2.727-16.424 1.363-24.637l.911 6.387v5.93c0 18.707-6.371 33.305-19.112 44.257l-6.825 5.93c-2.276 2.282-4.551 4.105-6.37 6.387l-2.731 4.105c-5.915 10.494-8.646 21.901-7.737 34.675 1.367-12.774 5.918-24.18 13.651-33.304 2.73-3.653 6.826-6.845 11.377-10.497l13.65-8.21c8.648-5.476 15.018-13.23 19.112-23.725 2.731-7.756 4.55-15.514 4.55-23.725v5.93l-.455 5.932c-2.731 18.703-11.376 32.392-25.027 41.515l-7.735 5.02c-2.73 1.825-5.006 3.65-6.826 5.475l-3.186 3.649c-7.737 10.038-11.832 21.445-12.287 34.675 2.731-13.23 8.648-23.727 17.748-32.393 3.639-3.192 7.734-5.93 13.196-8.213l14.106-6.842c9.102-4.562 16.38-11.407 21.841-20.99 4.095-6.842 6.826-14.596 7.737-22.811l-.455 5.932-1.366 5.474c-5.46 18.25-15.471 31.022-30.486 38.324l-8.192 3.65c-2.729 1.826-5.004 3.193-7.28 4.562l-3.641 3.192c-9.101 8.669-15.016 19.621-16.835 32.851 4.55-12.319 11.83-22.356 22.296-29.657 3.64-2.736 8.19-5.017 13.652-6.844l15.015-4.56c10.012-3.195 18.201-9.126 24.572-17.794 6.372-8.213 10.011-17.338 11.831-27.832-.455 2.738-.908 6.845-2.275 11.863l-2.275 5.474c-7.734 16.881-19.11 28.288-35.036 33.761l-8.648 2.738c-2.729.915-5.46 2.282-8.19 3.194L220.686 99c-10.011 7.757-17.292 17.794-20.931 31.024 6.37-12.32 14.562-20.989 25.938-26.917 4.095-2.282 9.101-4.107 14.559-5.02l15.471-2.737c10.468-1.367 19.112-6.843 26.849-14.598 7.28-7.302 12.285-15.968 15.471-26.008-.911 2.738-1.819 6.846-4.095 11.407l-3.186 5.476c-9.556 15.968-22.296 25.548-38.678 28.742l-9.101 1.367c-2.731.913-5.913 1.827-8.19 2.738l-4.55 2.282c-10.923 5.932-19.112 15.057-24.573 26.917 7.28-10.493 17.292-18.25 28.668-22.812 4.55-1.826 9.556-2.736 15.47-2.736l15.471-.457c10.468-.912 20.021-4.561 28.668-11.407 7.735-5.932 14.105-13.687 18.202-23.725-.911 2.738-2.731 6.388-5.462 10.95l-3.638 5.019c-11.376 14.601-25.483 22.356-42.32 23.268l-8.646.457c-3.185 0-6.37.458-9.101 1.369l-4.55 1.369c-11.376 4.563-20.931 12.317-27.757 23.268 9.101-9.58 19.567-15.512 31.397-18.25 4.549-.911 9.556-1.369 15.473-.911l15.926 1.367c10.01.913 19.565-1.367 29.577-7.299 8.19-5.017 15.926-11.861 20.93-20.987a99.557 99.557 0 01-6.826 10.036l-4.095 4.107c-13.195 13.233-28.21 19.163-45.047 17.794l-9.102-.456h-8.645l-5.005.91c-11.377 2.738-21.389 9.126-29.578 18.707 9.557-7.755 20.477-12.318 32.765-13.687 4.55-.456 9.554 0 15.47.913l15.015 4.104c10.468 1.826 20.022.915 30.488-3.648 9.557-3.651 17.291-9.582 23.661-17.794-1.364 1.826-4.095 5.018-7.735 8.67l-5.005 4.105c-15.015 10.949-30.488 14.598-46.867 11.405l-8.648-1.823c-3.184-.915-6.37-.915-9.102-1.371l-4.55.456c-11.829 1.369-22.296 6.387-31.852 14.603 10.923-6.844 21.844-9.583 33.676-9.127 5.003 0 10.009.911 15.47 3.193l14.559 5.476c9.557 3.193 20.024 3.649 30.489.457 10.012-2.738 18.201-7.3 25.938-14.603-1.822 1.826-4.55 4.564-9.101 7.759l-5.006 3.193c-16.381 9.126-32.307 10.949-48.234 5.018l-8.19-2.738c-3.186-.911-5.917-1.823-8.648-2.28h-5.004c-8.648-.456-16.837 1.369-25.027 5.018 8.646-2.28 17.745-2.738 26.392-1.367 4.55.91 9.101 2.281 14.561 5.015l13.652 7.759c9.1 4.561 19.11 5.93 30.031 4.561 10.011-1.367 19.567-5.474 27.757-11.405-2.275 1.823-5.459 4.105-10.01 6.844l-5.461 2.281c-17.29 6.843-33.217 6.387-48.235-1.368l-7.735-3.651c-3.185-1.367-5.916-2.738-8.648-3.649l-4.549-.912c-11.377-1.826-22.753 0-33.674 5.474 11.832-3.195 23.208-3.195 34.584 0 4.095 1.369 8.646 3.65 13.652 6.845l12.74 9.582c8.647 5.472 18.201 8.667 29.123 8.211 10.011 0 20.022-2.282 29.578-7.3-2.731 1.369-6.372 3.194-11.376 5.017l-5.916 1.826c-17.746 4.561-33.672 1.825-47.78-7.299l-7.282-5.018c-2.727-1.825-5.003-3.194-7.278-4.561l-5.006-1.371c-11.377-3.193-22.752-3.193-34.583.914 12.287-1.825 24.116-.458 35.038 4.562 4.096 1.825 8.191 5.019 12.741 8.669l11.376 10.949c7.737 6.843 16.837 10.95 27.758 12.319 10.009 1.367 20.021 0 30.032-3.65-2.73.912-6.825 2.281-11.375 3.65l-6.373.911c-18.654 2.282-34.127-2.28-46.412-13.687l-6.37-5.93c-2.274-2.282-5.005-3.649-7.281-5.018l-4.55-2.281c-10.92-5.02-22.296-5.93-34.583-3.649 12.287 0 24.116 2.738 34.127 9.126 4.095 2.279 7.736 5.929 11.376 10.492l10.013 12.32c6.825 7.754 15.471 12.774 25.935 15.512 10.012 2.738 20.021 2.738 30.033.456-2.731.911-6.826 1.367-11.831 2.282h-5.459c-19.112-.458-33.674-6.845-44.595-19.621l-5.914-6.844c-1.82-2.282-4.094-4.105-6.371-5.93l-4.096-2.738c-10.466-6.387-21.842-9.124-34.582-8.211 12.74 1.367 23.661 5.931 33.217 13.687 3.639 3.192 6.825 6.843 10.011 11.863l8.19 13.231c5.915 8.669 13.652 15.055 23.663 19.16 9.555 3.651 19.566 5.02 30.031 4.107-2.728.454-6.825.913-11.829.913l-6.372-.913c-18.201-2.736-32.306-10.951-41.406-25.092l-4.55-7.757c-1.823-2.282-3.642-4.561-5.917-6.844l-3.639-3.194c-9.556-7.757-20.932-11.862-34.128-12.318 12.741 2.738 23.662 8.669 32.309 18.25 3.183 3.192 5.913 7.299 8.645 12.774l6.37 14.143c4.095 9.582 11.376 16.883 20.932 22.356 8.646 5.019 18.657 7.758 28.666 7.758-2.729 0-6.825 0-11.831-.456l-5.914-1.825c-17.746-5.02-30.488-15.058-37.768-30.112l-3.641-8.212c-1.819-2.738-3.184-5.476-4.55-7.759l-3.639-3.649c-8.645-9.123-20.021-15.055-33.218-16.881 12.742 4.562 23.206 11.864 30.487 22.356 2.731 3.651 5.006 8.215 6.825 14.145l4.55 15.054c3.186 10.038 9.102 17.796 17.746 24.183 8.193 6.387 17.292 10.493 27.758 11.864-2.731 0-6.826-.915-11.832-2.282l-5.46-2.282c-17.292-7.3-28.213-19.162-33.673-35.132l-2.729-8.21c-.911-3.195-2.274-5.933-3.641-8.215l-2.731-4.105c-7.278-10.495-17.745-17.337-30.485-20.988 11.831 5.932 20.931 14.601 26.847 26.006 2.274 3.649 4.094 8.67 5.005 14.6l2.274 15.514c2.276 10.492 6.826 19.16 14.56 26.461 7.282 7.3 15.926 12.319 25.939 15.512-2.731-.911-5.915-2.282-11.376-4.105l-5.005-2.738c-15.927-9.582-25.484-22.356-28.667-39.239-1.366-8.211-2.73-14.141-4.095-17.335l-2.274-4.562c-5.917-10.95-15.018-19.164-27.303-24.637 10.92 7.754 18.654 17.335 23.206 29.199 1.366 4.105 2.274 9.125 2.73 15.055l.455 15.969c.456 10.038 4.551 19.618 10.921 28.288 6.37 8.21 14.107 14.143 24.118 18.706-3.185-1.371-6.371-3.196-10.922-5.476l-5.004-3.648c-14.561-11.864-22.298-26.009-23.208-42.888l-.455-8.671-1.364-8.667-1.822-5.02c-4.095-11.407-12.285-20.53-23.206-27.83 9.555 9.126 15.928 19.619 18.655 31.481.912 4.563 1.367 10.036.911 15.512l-1.819 15.968c-.456 10.038 1.819 20.074 7.281 29.655 5.459 8.669 12.285 15.512 20.93 21.445-2.274-1.369-5.458-3.65-9.553-6.843l-4.55-4.107c-12.744-13.689-18.657-28.743-17.293-45.626l.455-8.667c.455-3.192 0-6.386 0-8.669l-.911-5.02c-3.184-11.861-9.101-21.897-18.654-30.111 7.734 10.038 12.284 20.989 13.651 32.849.453 4.564 0 9.582-1.367 15.969l-3.638 15.055c-1.82 10.038-.912 20.076 3.183 30.112 4.097 9.583 10.012 17.339 18.201 24.183-2.275-1.828-5.003-4.561-9.1-8.213l-3.64-4.563c-10.92-15.056-14.562-31.024-11.376-47.45l1.819-8.669.912-8.667-.456-5.02c-.911-11.863-5.914-22.356-14.106-31.48 6.37 10.494 9.556 21.899 9.1 33.763 0 4.561-1.363 9.582-3.183 15.512l-5.461 14.143c-3.639 10.036-3.639 20.074-.911 30.568 2.73 10.038 7.736 18.706 15.018 26.462-2.275-1.823-5.006-5.476-8.193-9.581l-2.728-5.018c-9.102-16.427-10.923-32.395-5.461-48.364l3.186-8.211c.908-3.194 1.365-5.93 1.82-8.669l.455-5.02c0-8.667-1.367-16.881-5.461-24.635 2.73 8.667 3.186 17.791 1.82 26.004-.909 4.561-2.731 9.582-5.006 14.599l-7.734 14.146c-4.551 9.125-5.917 19.16-4.551 30.111a61.43 61.43 0 0011.376 27.83c-1.819-2.282-4.094-5.474-6.824-10.037l-2.276-5.475c-6.826-17.792-6.37-33.761.909-48.817l4.097-7.758c1.364-3.195 2.728-5.93 3.183-8.211l.911-5.02c1.82-11.405 0-22.812-5.005-33.306 3.186 11.863 3.186 23.268-.455 34.219-.909 4.561-3.64 9.123-6.826 14.143l-9.101 12.32c-5.914 8.669-8.645 18.249-8.645 29.198 0 10.493 2.73 20.075 7.737 29.199-1.367-2.28-3.186-5.472-5.462-10.949l-1.363-5.476c-4.55-18.25-2.276-34.219 7.279-47.906l5.005-7.298c1.819-2.738 3.187-5.476 4.095-7.758l1.822-4.562c3.183-11.407 2.728-23.268-.911-34.675 1.82 12.32 0 23.725-4.55 34.675-2.275 4.562-5.006 8.211-8.646 12.775l-10.921 11.405c-6.826 7.758-10.923 16.883-12.286 27.831-1.364 9.582-.456 18.707 2.73 27.832-.911-2.282-1.82-5.476-2.73-9.582l-.911-5.93c-2.275-18.25 2.274-33.761 13.197-46.538l6.37-6.386c1.819-2.28 3.64-4.562 5.006-6.844l2.275-4.562c4.55-11.407 5.914-22.812 3.183-35.131.456 12.776-2.275 24.181-8.646 34.219-2.729 4.107-5.913 7.755-10.464 11.861l-12.288 9.582c-7.737 6.844-12.74 15.512-15.926 26.463-2.274 9.582-2.274 19.619 0 30.111-.911-2.738-1.364-6.844-2.274-12.318v-5.932c.455-18.706 6.824-33.304 19.566-44.252l6.825-5.476c2.276-2.282 4.098-4.563 5.917-6.844l2.731-4.107c6.369-10.494 8.645-21.901 7.735-34.675-.91 13.232-5.46 24.181-13.197 33.763-3.185 3.194-6.825 6.843-11.831 10.038l-13.195 8.212c-8.646 5.474-15.016 13.687-19.113 23.725-3.183 7.757-4.55 15.512-4.55 23.725l-.453-5.93.909-5.93c2.731-18.707 10.921-32.393 25.027-41.519l7.28-5.019c2.731-1.824 5.006-3.649 6.826-5.474l3.639-3.651c7.737-10.038 11.831-21.443 12.287-34.675-2.731 13.232-9.101 23.726-18.202 32.395-3.185 3.194-7.737 5.93-12.74 8.667l-14.562 6.386c-9.101 4.563-16.382 11.407-21.841 20.989-4.097 7.3-6.826 15.058-7.737 23.269l.456-6.387 1.82-5.475c5.006-18.25 15.015-31.024 30.033-38.324l8.19-3.651c2.731-1.369 5.461-3.194 7.737-4.561l3.639-3.194c9.101-8.669 14.562-19.617 16.381-32.849-4.55 12.319-11.831 22.358-21.84 29.655-4.097 3.194-8.649 5.476-14.107 6.844l-15.018 4.563c-9.554 3.194-17.745 9.123-24.571 17.793-5.915 8.213-10.01 17.338-11.831 27.83.456-2.281 1.366-6.386 2.73-11.861l2.276-5.476c7.281-16.881 19.112-28.286 35.039-33.761l8.19-2.738c3.186-.913 5.916-1.825 8.192-3.194l4.094-2.736c10.011-7.757 17.291-17.796 20.934-30.57-5.917 11.864-14.563 20.533-25.939 26.919a90.26 90.26 0 01-14.562 5.02l-15.47 2.279c-10.01 2.282-19.11 6.844-26.846 14.602-6.826 7.298-12.288 15.968-15.016 26.004.453-2.738 1.82-6.844 3.639-11.407l3.185-5.472c9.555-15.968 22.752-25.55 39.132-28.744l8.648-1.369c3.184-.913 5.914-1.823 8.646-2.738l4.094-2.28c11.377-5.93 19.566-15.055 25.027-27.375-7.737 11.407-17.29 18.706-29.121 23.268-4.55 1.826-9.556 2.738-15.471 3.193H78.265c-10.01.914-19.566 4.563-28.211 11.407-8.192 5.932-14.107 14.143-18.657 23.725.911-2.736 3.187-6.387 5.461-10.949l3.64-4.561c11.831-14.602 25.938-22.815 42.318-23.727l9.102-.457c3.185 0 5.916-.454 8.647-1.367l4.55-1.369c11.83-4.561 20.93-12.319 27.756-23.268-8.646 9.582-19.11 15.512-31.397 18.25-4.095 1.367-9.556 1.367-15.471 1.367l-15.471-1.825c-10.468-.913-20.021 1.825-29.577 7.302-8.646 5.017-15.928 11.861-21.389 20.987 1.366-2.28 3.642-5.474 6.826-10.039l4.095-4.104c13.65-13.231 28.668-19.163 45.05-17.794 5.004.454 7.735.454 9.102.911 3.184 0 5.914 0 8.645-.457l5.005-.91c11.829-2.738 21.386-9.126 29.578-18.707-9.557 7.759-20.478 12.774-32.309 13.687-4.55.458-10.011 0-15.47-.913l-15.473-3.648c-10.01-2.282-20.022-.913-30.031 3.194-9.557 3.649-17.294 10.036-24.118 18.25 1.82-2.282 4.55-5.476 8.192-9.125l4.55-3.651c15.016-11.407 30.486-15.056 46.868-11.863l9.101 1.827c3.186.91 5.915.911 8.645 1.367l5.006-.457c11.832-1.366 22.296-6.386 31.397-14.599-10.465 6.846-21.841 9.58-33.672 9.126-4.55 0-9.556-.913-15.47-2.738l-14.563-5.933c-9.557-3.192-19.566-3.648-30.033-.454-10.01 2.736-18.655 7.299-26.392 14.6 1.82-1.826 5.005-4.564 9.1-7.755l5.462-3.196c15.926-9.124 32.306-10.949 47.779-5.018l8.645 2.738c2.73.913 5.915 1.823 8.645 2.28h4.552c8.645.458 16.836-1.367 25.026-5.018-8.645 2.282-17.29 2.738-25.938 1.369-4.55-.913-9.554-2.279-15.016-5.017L58.7 182.497c-9.101-5.017-19.112-6.386-30.033-5.017-10.01 1.369-19.11 5.476-27.757 11.405 2.276-1.823 5.462-4.105 10.012-6.844l5.461-2.28c17.29-6.844 33.672-6.386 48.688 1.369l7.737 4.105c2.73.913 5.458 2.282 8.19 3.193l5.005.914c11.376 1.824 22.297 0 33.216-5.476-11.829 3.195-23.204 3.195-34.127 0-4.55-1.369-9.102-3.648-14.105-6.843l-12.742-9.58c-8.19-5.476-18.202-8.215-29.122-8.215-10.012 0-19.566 2.282-29.122 7.3 2.276-1.367 5.915-3.194 10.92-5.017l5.915-1.826c18.202-4.561 34.128-1.823 47.78 7.302l7.28 5.018c2.731 1.825 5.462 3.192 7.737 4.563l5.007 1.367c10.92 3.194 22.751 3.194 34.127-.912-12.287 1.825-23.663.456-34.584-4.564-4.094-1.823-8.645-5.015-12.742-8.667l-11.376-10.951c-7.734-6.843-16.835-10.949-27.755-12.32-10.467-.911-20.024 0-30.032 3.651 2.73-.913 6.37-2.28 11.375-3.651l5.915-.911c18.657-1.823 34.128 2.282 46.871 13.688l6.37 5.93c2.275 1.825 5.005 3.651 7.28 5.476l4.096 1.823c10.92 5.02 22.751 5.93 35.036 3.651-12.74.456-24.116-2.736-34.58-9.126-3.642-2.281-7.737-5.931-11.376-10.494l-10.012-12.319c-6.826-7.756-15.47-12.774-25.937-15.512-9.555-2.738-19.566-2.738-30.031-.456 2.729-.455 6.826-1.369 11.829-2.282h5.916c18.657.456 33.673 6.844 44.594 19.619 2.73 3.649 4.55 5.931 5.916 6.844 1.82 2.281 4.095 4.563 6.371 5.93l4.095 2.738c10.013 6.388 21.842 9.125 34.129 8.211-12.741-1.367-23.663-5.929-33.217-13.687-3.642-2.736-6.826-6.844-10.011-11.86l-8.19-13.235c-5.917-8.667-13.652-14.597-23.663-19.16-9.557-3.651-19.566-5.018-30.033-4.105 3.186-.457 7.28-.456 12.286-.456l5.915.456c18.2 2.736 32.307 10.949 41.408 25.094l5.005 7.754 5.46 6.844 3.642 3.195c9.556 7.757 21.385 11.864 34.584 12.318-13.199-2.736-24.12-8.669-32.309-18.249-3.186-3.192-6.37-7.3-8.645-12.318l-6.373-14.601c-4.55-9.582-11.375-16.88-20.93-21.9-9.1-5.474-18.657-8.212-29.124-8.212 2.73 0 6.825 0 11.83.912l5.911 1.368z" fill="#fff" fill-opacity=".5"/></svg>