<svg width="21" height="16" fill="none" xmlns="http://www.w3.org/2000/svg"><path fill-rule="evenodd" clip-rule="evenodd" d="M12.467.114c-.3.14-.576.415-.674.673-.096.256-.085.786.022 1.032.05.115 1.126 1.241 2.421 2.533l2.331 2.326-13.864.032-1.864.033-.246.153a1.653 1.653 0 00-.42.415C.03 7.53 0 7.645 0 8.003c0 .357.029.473.173.69.095.145.284.332.42.416l.246.153 1.864.033 13.864.032-2.33 2.326c-1.296 1.292-2.372 2.418-2.422 2.533-.107.246-.118.776-.022 1.032.237.625 1.078.965 1.688.68.28-.13 7.127-6.863 7.359-7.235.221-.357.212-.995-.02-1.345-.27-.406-7.064-7.084-7.34-7.211a1.22 1.22 0 00-1.014.007z" fill="#fff"/></svg>