<svg width="38" height="42" fill="none" xmlns="http://www.w3.org/2000/svg"><path fill-rule="evenodd" clip-rule="evenodd" d="M18.908 34.023c-.776-1.28-2.099-2.106-3.449-2.753-2.682-1.286-4.023-4.257-4.023-8.913V6.133A5.718 5.718 0 000 6.133V22.7c0 5.974 1.656 10.589 4.967 13.843 3.35 3.255 8.028 4.883 14.035 4.883 2.366 0 3.197-2.868 1.744-4.736a27.89 27.89 0 01-1.838-2.668z" fill="#00819D"/><path fill-rule="evenodd" clip-rule="evenodd" d="M38 36.426c0-2.52-2.185-4.394-4.064-6.075-1.747-1.562-2.62-4.225-2.62-7.988V6.119a5.705 5.705 0 10-11.41 0v16.589c0 5.975 1.652 10.59 4.956 13.846 2.169 2.113 4.895 3.54 8.18 4.282 2.672.604 4.958-1.67 4.958-4.41z" fill="#009D94"/></svg>